<?xml version="1.0" standalone="no"?>
<!DOCTYPE svg PUBLIC "-//W3C//DTD SVG 20010904//EN"
 "http://www.w3.org/TR/2001/REC-SVG-20010904/DTD/svg10.dtd">
<svg version="1.0" xmlns="http://www.w3.org/2000/svg"
 width="500.000000pt" height="500.000000pt" viewBox="0 0 500.000000 500.000000"
 preserveAspectRatio="xMidYMid meet">

<g transform="translate(0.000000,500.000000) scale(0.100000,-0.100000)"
fill="#000000" stroke="none">
<path d="M1647 3742 c-4 -20 0 -31 15 -43 11 -8 23 -31 28 -50 l8 -34 1 38 c1
39 -19 100 -37 111 -5 3 -12 -7 -15 -22z"/>
<path d="M1702 3550 c-5 -14 -6 -37 -1 -53 11 -38 2 -57 -27 -57 -32 0 -39 22
-27 76 9 40 9 42 -8 33 -10 -5 -23 -18 -29 -29 -12 -23 -13 -53 -1 -46 5 3 12
-11 16 -32 7 -38 21 -62 35 -62 5 0 22 11 38 25 26 22 31 23 42 10 44 -53 88
40 59 124 -21 59 -40 34 -31 -41 3 -27 1 -48 -5 -48 -18 0 -33 24 -34 55 0 16
-4 39 -9 50 -8 19 -8 19 -18 -5z"/>
<path d="M1389 3529 c-21 -21 -19 -51 6 -78 19 -20 -6 -55 -62 -88 -24 -14
-42 -27 -39 -30 6 -6 79 32 112 60 16 13 46 30 66 36 48 16 52 23 34 65 -24
57 -79 73 -117 35z m41 -23 c0 -21 -21 -31 -30 -15 -5 7 -6 17 -4 21 9 14 34
9 34 -6z m54 -21 c3 -9 -1 -18 -10 -22 -19 -7 -28 2 -21 22 8 19 23 19 31 0z"/>
<path d="M2045 3428 c-19 -64 -19 -102 0 -153 10 -30 14 -98 16 -270 0 -126 4
-241 8 -255 7 -24 8 -24 18 -5 6 11 19 49 28 84 14 56 15 86 6 243 -9 155 -9
183 4 201 24 34 18 74 -21 143 -20 35 -37 64 -39 64 -3 0 -11 -23 -20 -52z"/>
<path d="M3161 3468 c-79 -4 -146 -9 -148 -11 -2 -3 72 -4 164 -4 187 0 293
-12 421 -49 346 -98 517 -327 447 -599 -35 -136 -107 -250 -243 -389 -271
-276 -710 -495 -1172 -585 -418 -81 -768 -57 -1027 70 -142 70 -254 195 -282
315 -9 38 -9 38 -10 8 -2 -55 37 -159 82 -221 97 -130 263 -220 507 -274 149
-33 479 -33 685 -1 581 91 1136 364 1435 707 334 384 275 758 -148 939 -191
82 -400 109 -711 94z"/>
<path d="M1021 3371 c-14 -49 -21 -87 -16 -98 4 -10 11 -135 14 -278 6 -259 6
-260 34 -317 113 -231 451 -314 941 -232 162 27 310 89 344 145 l14 21 26 -25
c62 -57 123 -63 194 -18 l46 29 19 -20 c53 -58 116 -59 161 -1 50 67 41 243
-18 337 -32 50 -50 59 -50 23 0 -12 -6 -47 -14 -77 -14 -51 -13 -56 4 -75 29
-31 30 -69 3 -73 -24 -4 -39 18 -58 83 -16 51 -35 51 -52 -1 -10 -30 -22 -45
-49 -57 -69 -33 -123 -15 -144 48 -6 19 -17 35 -23 35 -7 -1 -24 -19 -40 -41
-81 -118 -290 -174 -647 -174 -262 0 -412 32 -512 108 -74 57 -76 65 -83 312
-7 245 -17 330 -46 386 -11 22 -20 39 -22 39 -1 0 -13 -36 -26 -79z"/>
<path d="M2938 3443 c6 -2 18 -2 25 0 6 3 1 5 -13 5 -14 0 -19 -2 -12 -5z"/>
<path d="M1916 3417 c-22 -32 -46 -111 -46 -147 0 -15 9 -38 19 -52 16 -20 21
-48 27 -160 8 -162 4 -188 -32 -188 -36 0 -94 59 -94 97 0 15 -7 106 -15 202
-15 185 -26 218 -62 195 -27 -17 -32 -58 -21 -167 14 -141 7 -250 -19 -285
-41 -55 -135 -52 -163 6 -8 15 -15 76 -18 140 l-4 112 36 44 c27 33 32 45 22
49 -8 3 -20 -1 -26 -8 -19 -23 -30 -8 -30 40 0 29 -5 45 -15 49 -18 7 -29 -17
-39 -85 -6 -44 -9 -46 -61 -68 -115 -48 -185 -140 -185 -245 0 -48 4 -61 26
-83 22 -22 31 -25 70 -19 24 3 66 17 93 31 55 27 52 30 66 -45 11 -54 45 -108
77 -121 41 -17 99 12 156 78 25 29 48 53 51 53 3 0 14 -20 25 -45 26 -65 60
-88 116 -82 65 7 103 52 120 141 10 54 10 92 0 197 -10 105 -10 135 0 154 16
30 7 100 -16 126 -9 10 -22 40 -29 66 l-12 47 -17 -27z m-486 -345 c0 -53 -10
-63 -78 -82 -47 -12 -92 -4 -92 16 0 13 144 114 163 114 4 0 7 -21 7 -48z"/>
<path d="M2927 3322 l-27 -87 15 -235 c24 -366 38 -419 128 -474 104 -64 208
-44 316 61 30 29 58 53 61 53 4 0 15 -9 26 -21 29 -32 89 -59 132 -59 100 0
147 106 122 272 -12 76 -16 84 -60 130 -57 59 -95 64 -157 19 -44 -32 -70 -69
-123 -175 -46 -93 -69 -108 -167 -114 -69 -4 -81 -2 -106 18 -53 42 -58 66
-74 329 -21 376 -39 432 -86 283z m659 -523 c15 -41 18 -99 5 -99 -17 0 -120
106 -113 116 4 6 18 18 32 27 20 14 27 15 44 4 11 -8 25 -29 32 -48z"/>
<path d="M3970 3396 c0 -3 14 -12 30 -21 17 -9 30 -13 30 -11 0 3 -13 12 -30
21 -16 9 -30 13 -30 11z"/>
<path d="M2355 3313 l-48 -65 24 -19 c13 -10 43 -32 66 -49 l42 -30 45 59 c25
33 46 63 46 68 0 7 -78 71 -116 95 -6 4 -30 -19 -59 -59z"/>
<path d="M4137 3274 c43 -43 91 -103 106 -131 135 -254 6 -593 -334 -877 -317
-266 -733 -457 -1214 -556 -338 -70 -725 -63 -977 16 -154 49 -302 140 -369
227 -40 51 -55 68 -44 47 21 -38 81 -104 134 -144 106 -82 220 -131 396 -171
103 -24 149 -28 325 -32 283 -7 494 23 807 113 254 73 474 169 688 299 158 96
246 164 366 284 321 321 386 654 173 890 -23 25 -63 61 -89 80 -40 29 -36 22
32 -45z"/>
<path d="M2288 3142 c-24 -27 -80 -113 -76 -116 1 -1 31 -25 64 -54 34 -29 64
-52 67 -52 3 0 19 23 37 50 18 28 34 50 37 50 2 0 32 -22 65 -50 l62 -49 49
67 49 67 -39 33 c-21 19 -50 43 -65 53 l-27 19 -32 -45 c-18 -25 -37 -45 -42
-45 -6 0 -33 17 -61 39 -70 52 -71 53 -88 33z"/>
<path d="M3120 3108 c-6 -24 -13 -50 -16 -59 -3 -11 3 -19 20 -23 28 -7 56
-67 57 -124 1 -62 17 -6 18 63 1 47 -6 74 -29 123 -16 34 -31 62 -34 62 -3 0
-10 -19 -16 -42z"/>
<path d="M890 2909 c-57 -34 -91 -71 -116 -124 -34 -73 -31 -100 5 -43 32 51
56 68 94 68 22 0 26 7 40 60 8 33 14 60 13 60 0 0 -17 -10 -36 -21z"/>
<path d="M845 2771 c-50 -21 -70 -73 -53 -140 10 -39 9 -45 -8 -58 -55 -40
-66 -54 -54 -69 16 -19 30 -18 54 5 24 22 111 69 174 94 36 14 42 21 42 46 l0
29 -47 -14 c-25 -8 -64 -14 -85 -14 -35 0 -39 2 -36 23 2 17 11 23 37 25 19 2
37 -2 41 -8 5 -8 12 1 20 24 9 29 9 40 0 51 -13 16 -53 19 -85 6z"/>
<path d="M3564 2455 c-27 -14 -74 -48 -104 -76 l-55 -50 65 52 c72 58 142 93
171 86 10 -3 19 -1 19 4 0 17 -46 9 -96 -16z"/>
<path d="M2788 2453 c7 -3 16 -2 19 1 4 3 -2 6 -13 5 -11 0 -14 -3 -6 -6z"/>
<path d="M2888 2448 c31 -15 26 -58 -8 -75 -16 -8 -19 -13 -9 -13 22 0 49 32
49 58 0 19 -27 43 -47 41 -4 0 2 -5 15 -11z"/>
<path d="M3127 2451 c24 -3 52 -14 63 -23 45 -40 38 -83 -51 -307 -28 -68 -48
-125 -46 -127 9 -9 63 31 97 70 l34 41 -47 -45 c-26 -24 -47 -38 -47 -31 0 7
22 66 50 131 61 144 76 204 61 243 -13 34 -64 58 -118 55 l-38 -1 42 -6z"/>
<path d="M2720 2434 c-84 -36 -116 -108 -69 -155 11 -11 23 -18 26 -15 3 3 -2
12 -11 21 -36 37 -2 106 73 145 43 23 31 26 -19 4z"/>
<path d="M2065 2431 c-88 -21 -165 -87 -165 -141 0 -16 5 -32 11 -35 6 -4 10
-1 8 6 -7 52 30 98 109 135 41 20 81 29 142 34 l85 7 -80 1 c-44 0 -93 -3
-110 -7z"/>
<path d="M2337 2389 c61 -66 65 -145 13 -236 -33 -57 -72 -91 -140 -122 -25
-11 -38 -21 -29 -21 33 0 140 63 174 103 41 47 69 131 59 174 -10 42 -41 89
-72 108 l-27 18 22 -24z"/>
<path d="M2938 2373 c-48 -51 -70 -97 -71 -150 0 -44 25 -94 51 -99 7 -1 8 0
2 3 -16 8 -40 59 -40 86 0 42 30 114 66 156 44 51 40 53 -8 4z"/>
<path d="M2169 2353 c-20 -21 -78 -91 -129 -155 -51 -65 -96 -118 -100 -118
-4 0 -14 25 -21 56 -8 30 -18 56 -24 57 -16 3 -65 -103 -65 -139 0 -18 4 -35
8 -38 5 -3 7 8 4 23 -4 32 31 121 47 121 6 0 11 -9 11 -20 0 -12 7 -34 15 -50
14 -28 14 -30 -18 -55 l-32 -27 35 20 c35 20 36 20 60 2 36 -28 46 -24 13 4
l-28 24 60 64 c33 35 87 96 120 136 33 40 62 72 65 72 3 1 21 14 40 30 l34 30
-30 0 c-22 0 -40 -10 -65 -37z"/>
<path d="M2698 2283 c6 -2 18 -2 25 0 6 3 1 5 -13 5 -14 0 -19 -2 -12 -5z"/>
<path d="M2772 2282 c24 -10 9 -29 -27 -35 l-30 -4 31 -2 c35 -1 70 21 60 37
-4 7 -17 12 -29 11 -18 0 -19 -2 -5 -7z"/>
<path d="M3339 2253 c-13 -16 -12 -17 4 -4 9 7 17 15 17 17 0 8 -8 3 -21 -13z"/>
<path d="M2565 2240 c-3 -6 1 -7 9 -4 18 7 21 14 7 14 -6 0 -13 -4 -16 -10z"/>
<path d="M2508 2203 c-82 -63 -104 -137 -55 -179 90 -78 303 -40 374 65 34 51
27 122 -12 121 -5 0 -2 -5 8 -11 42 -25 6 -111 -68 -158 -122 -78 -295 -57
-295 35 0 44 12 69 58 117 43 44 39 48 -10 10z"/>
<path d="M3061 2194 c0 -11 3 -14 6 -6 3 7 2 16 -1 19 -3 4 -6 -2 -5 -13z"/>
<path d="M2674 2156 c-26 -26 -34 -42 -32 -67 l1 -34 4 33 c3 20 17 45 40 67
20 19 33 35 29 35 -5 0 -23 -15 -42 -34z"/>
<path d="M3234 2128 l-19 -23 23 19 c21 18 27 26 19 26 -2 0 -12 -10 -23 -22z"/>
<path d="M2138 2003 c7 -3 16 -2 19 1 4 3 -2 6 -13 5 -11 0 -14 -3 -6 -6z"/>
</g>
</svg>
